<?xml version="1.0" encoding="UTF-8" standalone="no"?>
<svg
   zoomAndPan="magnify"
   viewBox="94 118 188 139"
   preserveAspectRatio="xMidYMid meet"
   version="1.0"
   id="svg8"
   sodipodi:docname="Untitled design(2).svg"
   inkscape:version="1.4.2 (f4327f4, 2025-05-13)"
   xmlns:inkscape="http://www.inkscape.org/namespaces/inkscape"
   xmlns:sodipodi="http://sodipodi.sourceforge.net/DTD/sodipodi-0.dtd"
   xmlns="http://www.w3.org/2000/svg"
   xmlns:svg="http://www.w3.org/2000/svg">
  <defs
     id="defs1">
    <clipPath
       id="bc6fb1b718">
      <path
         d="M 150.042969 118.921875 L 281.292969 118.921875 L 281.292969 256.171875 L 150.042969 256.171875 Z M 150.042969 118.921875 "
         clip-rule="nonzero"
         id="path1" />
    </clipPath>
  </defs>
  <path
     id="path5"
     d="M 226.70361 119.23828 C 208.74267 118.3125 190.9292 119.29346 173.40967 123.67236 C 167.13232 125.24267 161.01904 127.28564 155.64404 131.03174 C 152.02295 133.55517 150.03467 136.79736 150.0542 141.5083 C 150.1831 172.48877 150.14502 203.46924 150.1333 234.4497 C 150.1333 237.22314 151.15185 239.4917 153.01904 241.46045 C 155.96045 244.5581 159.68408 246.40234 163.56299 247.95703 C 175.18408 252.61719 187.41064 254.47656 199.77392 255.43359 C 217.60595 256.8125 235.35498 256.07422 252.88623 252.32812 C 260.67138 250.66797 268.35595 248.57861 275.12548 244.08252 C 279.03173 241.48486 281.1875 238.17187 281.13281 233.21484 C 280.96484 217.96093 281.06982 202.70263 281.06982 187.44873 L 281.07422 187.44873 L 281.1167 187.44873 C 281.1167 172.19092 281.00439 156.93799 281.18408 141.68408 C 281.24267 136.72705 279.10937 133.37842 275.23828 130.76514 C 270.60937 127.63232 265.42138 125.79736 260.10498 124.30517 C 249.1831 121.24267 238.00439 119.82031 226.70361 119.23828 z M 202.2334 122.92236 C 210.77392 122.41992 219.35693 122.51562 227.96045 122.9414 C 238.84326 123.48437 249.60156 124.85937 260.07422 128.0039 C 264.55859 129.34765 269.03125 130.76221 272.90625 133.51611 C 274 134.29736 275.06298 135.16406 275.96923 136.14844 C 278.19189 138.57422 278.24951 141.15967 275.73779 143.2456 C 273.40966 145.1831 270.83203 146.98437 268.08984 148.23047 C 260.46484 151.70312 252.28955 153.29639 244.05908 154.61279 C 233.96142 156.22998 223.78857 156.64404 215.29248 156.72217 C 209.79663 156.64656 204.50561 156.44446 199.36816 156.04541 A 59.34375 89.0625 0 0 1 200.79199 159.66943 C 208.40179 160.20909 216.05082 160.27151 223.72998 159.97265 C 235.51513 159.51172 247.17187 158.20312 258.58593 155.1914 C 263.96484 153.76953 269.25048 152.01904 274.00048 148.99951 C 275.1372 148.27685 276.22216 147.46826 277.54248 146.55029 L 277.54248 150.03955 C 277.54638 156.33642 277.40673 162.64111 277.60986 168.93017 C 277.72314 172.49658 276.14843 174.85986 273.42187 176.74658 C 268.6875 180.02783 263.32763 181.86279 257.83154 183.30029 C 241.53857 187.56201 224.9331 188.6958 208.16748 188.10205 C 207.9335 188.09374 207.69972 188.08467 207.46582 188.07568 A 59.34375 89.0625 0 0 1 207.83056 191.73047 C 216.21953 192.03076 224.6348 191.76602 233.0625 191.0625 C 244.94531 190.07031 256.71094 188.15674 267.83203 183.57861 C 271.19531 182.1958 274.29736 180.18359 277.55127 178.4414 L 277.55127 183.4292 C 277.55127 189.41748 277.39843 195.41064 277.60547 201.39111 C 277.72656 204.85205 276.1792 207.1206 273.5581 208.95263 C 270.02685 211.42138 266.06689 212.98388 261.98877 214.27295 C 251.66064 217.53466 241.02392 219.0708 230.26611 219.89502 C 222.57704 220.4846 214.88518 220.56035 207.20068 220.22168 A 59.34375 89.0625 0 0 1 206.68066 223.80761 C 211.39406 223.99315 216.11549 224.00261 220.83984 223.88672 C 235.08203 223.53906 249.16748 221.94531 262.83545 217.67578 C 268.04638 216.04687 273.0664 213.94922 277.45312 210.28125 C 277.51172 210.68359 277.56298 210.87158 277.56298 211.05908 C 277.56298 218.92236 277.55468 226.78125 277.55859 234.64453 C 277.55859 236.60937 276.64404 238.13232 275.26904 239.42138 C 271.84716 242.64013 267.61328 244.39453 263.26172 245.84765 C 252.78906 249.35156 241.98388 251.28857 230.98388 251.74951 C 221.63623 252.14404 212.25 252.3667 202.91015 251.97216 C 189.57031 251.41357 176.38672 249.46093 163.95703 244.23047 C 161.03906 243.0039 158.40234 241.03125 155.8125 239.15625 C 154.25 238.02344 153.69092 236.20361 153.69873 234.18017 C 153.70209 233.43326 153.70442 232.68587 153.70605 231.93896 L 153.70459 231.93896 L 153.69726 223.13086 C 153.69707 223.0747 153.69747 223.01855 153.69726 222.9624 C 153.68263 218.89297 153.6591 214.82382 153.64892 210.75439 C 153.64892 210.70817 153.6645 210.66095 153.68555 210.61377 L 153.67236 195.17285 C 153.67169 195.09132 153.67301 195.00975 153.67236 194.92822 C 153.62871 189.4254 153.64137 183.922 153.62549 178.41797 C 153.62549 178.37512 153.63661 178.3315 153.65625 178.27881 C 153.65637 178.27848 153.65612 178.27767 153.65625 178.27734 L 153.62256 139.82226 C 153.62253 139.82178 153.62259 139.82128 153.62256 139.8208 C 153.57127 139.02853 153.81696 138.22596 154.34326 137.53125 C 155.45654 136.0625 156.73486 134.60498 158.23096 133.56592 C 163.80517 129.69092 170.28076 128.0039 176.76123 126.49219 C 185.19482 124.52539 193.69287 123.4248 202.2334 122.92236 z "
   style="fill:#c2410c;fill-opacity:1" />
  <path
   fill="#c2410c"
     d="M 137.582031 187.207031 C 136.972656 187.371094 136.351562 187.484375 135.722656 187.546875 C 135.09375 187.613281 134.464844 187.632812 133.832031 187.601562 C 133.203125 187.570312 132.574219 187.488281 131.957031 187.363281 C 131.335938 187.234375 130.730469 187.0625 130.140625 186.839844 C 129.546875 186.621094 128.976562 186.355469 128.421875 186.046875 C 127.871094 185.738281 127.347656 185.390625 126.847656 185.003906 C 126.351562 184.613281 125.882812 184.1875 125.453125 183.726562 C 125.019531 183.269531 124.625 182.777344 124.265625 182.253906 C 124.132812 182.058594 123.964844 181.894531 123.769531 181.761719 C 123.570312 181.628906 123.355469 181.539062 123.125 181.488281 C 122.890625 181.4375 122.660156 181.433594 122.425781 181.476562 C 122.191406 181.515625 121.972656 181.597656 121.769531 181.722656 C 121.566406 181.847656 121.394531 182.003906 121.253906 182.195312 C 121.109375 182.386719 121.011719 182.597656 120.949219 182.824219 C 120.890625 183.054688 120.871094 183.289062 120.902344 183.523438 C 120.929688 183.761719 121.003906 183.980469 121.117188 184.191406 C 122.804688 186.730469 125.042969 188.613281 127.832031 189.847656 C 123.9375 199.597656 131.007812 209.820312 131.332031 210.261719 C 131.476562 210.453125 131.648438 210.613281 131.855469 210.738281 C 132.0625 210.863281 132.285156 210.945312 132.523438 210.980469 C 132.761719 211.019531 132.996094 211.011719 133.230469 210.957031 C 133.464844 210.902344 133.683594 210.804688 133.878906 210.667969 C 134.074219 210.527344 134.238281 210.359375 134.371094 210.15625 C 134.5 209.953125 134.585938 209.734375 134.632812 209.496094 C 134.675781 209.257812 134.671875 209.023438 134.625 208.785156 C 134.578125 208.550781 134.488281 208.332031 134.351562 208.132812 C 134.285156 208.035156 128.035156 198.929688 131.394531 190.964844 C 132.390625 191.164062 133.402344 191.269531 134.421875 191.277344 C 135.769531 191.273438 137.097656 191.121094 138.410156 190.820312 C 138.652344 190.765625 138.871094 190.667969 139.070312 190.523438 C 139.269531 190.382812 139.4375 190.207031 139.566406 190 C 139.695312 189.792969 139.78125 189.570312 139.824219 189.328125 C 139.867188 189.085938 139.859375 188.84375 139.804688 188.605469 C 139.75 188.367188 139.652344 188.148438 139.511719 187.945312 C 139.371094 187.746094 139.195312 187.582031 138.988281 187.449219 C 138.78125 187.320312 138.558594 187.230469 138.316406 187.191406 C 138.074219 187.148438 137.832031 187.15625 137.59375 187.207031 Z M 137.582031 187.207031 "
     fill-opacity="1"
     fill-rule="nonzero"
     id="path2"
   style="fill:#c2410c;fill-opacity:1" />
  <path
   fill="#c2410c"
     d="M 132.6875 219.589844 C 124.824219 225.605469 116.578125 218.429688 116.230469 218.113281 C 116.046875 217.949219 115.839844 217.832031 115.609375 217.75 C 115.378906 217.671875 115.144531 217.640625 114.898438 217.65625 C 114.65625 217.667969 114.425781 217.730469 114.207031 217.835938 C 113.984375 217.941406 113.792969 218.085938 113.632812 218.265625 C 113.46875 218.449219 113.347656 218.65625 113.265625 218.882812 C 113.183594 219.113281 113.148438 219.351562 113.164062 219.59375 C 113.175781 219.839844 113.234375 220.070312 113.335938 220.289062 C 113.441406 220.511719 113.582031 220.703125 113.761719 220.867188 C 115.449219 222.347656 117.335938 223.5 119.425781 224.320312 C 121.511719 225.144531 123.675781 225.585938 125.917969 225.65625 C 127.554688 225.652344 129.144531 225.382812 130.6875 224.847656 C 132.234375 224.3125 133.648438 223.539062 134.929688 222.523438 C 135.132812 222.378906 135.300781 222.199219 135.429688 221.984375 C 135.558594 221.773438 135.640625 221.542969 135.679688 221.296875 C 135.714844 221.050781 135.703125 220.804688 135.640625 220.5625 C 135.578125 220.320312 135.472656 220.101562 135.320312 219.902344 C 135.167969 219.703125 134.984375 219.542969 134.769531 219.417969 C 134.550781 219.292969 134.320312 219.21875 134.070312 219.1875 C 133.824219 219.15625 133.582031 219.175781 133.339844 219.246094 C 133.101562 219.316406 132.882812 219.425781 132.6875 219.585938 Z M 132.6875 219.589844 "
     fill-opacity="1"
     fill-rule="nonzero"
     id="path3"
   style="fill:#c2410c;fill-opacity:1" />
  <path
   fill="#c2410c"
     d="M 194.855469 231.988281 C 193.875 232 192.960938 232.246094 192.109375 232.726562 L 180.640625 221.257812 C 180.28125 220.898438 179.84375 220.71875 179.332031 220.71875 L 153.898438 220.71875 L 153.898438 212.171875 L 187.980469 212.171875 C 188.125 212.605469 188.320312 213.015625 188.5625 213.402344 C 188.804688 213.789062 189.089844 214.144531 189.414062 214.464844 C 189.742188 214.785156 190.097656 215.066406 190.492188 215.300781 C 190.882812 215.539062 191.296875 215.722656 191.730469 215.863281 C 192.167969 216 192.613281 216.085938 193.070312 216.121094 C 193.527344 216.152344 193.980469 216.132812 194.429688 216.058594 C 194.882812 215.988281 195.320312 215.863281 195.742188 215.683594 C 196.164062 215.507812 196.558594 215.285156 196.925781 215.015625 C 197.296875 214.746094 197.628906 214.4375 197.925781 214.085938 C 198.222656 213.738281 198.472656 213.359375 198.679688 212.953125 C 198.886719 212.546875 199.042969 212.117188 199.148438 211.675781 C 199.253906 211.230469 199.308594 210.777344 199.308594 210.320312 C 199.308594 209.863281 199.253906 209.414062 199.148438 208.96875 C 199.042969 208.523438 198.886719 208.097656 198.679688 207.6875 C 198.472656 207.28125 198.222656 206.902344 197.925781 206.554688 C 197.628906 206.207031 197.296875 205.898438 196.925781 205.628906 C 196.558594 205.359375 196.164062 205.132812 195.742188 204.957031 C 195.320312 204.78125 194.882812 204.65625 194.429688 204.582031 C 193.980469 204.507812 193.527344 204.488281 193.070312 204.523438 C 192.613281 204.554688 192.167969 204.640625 191.730469 204.78125 C 191.296875 204.917969 190.882812 205.105469 190.492188 205.339844 C 190.097656 205.578125 189.742188 205.855469 189.414062 206.175781 C 189.089844 206.496094 188.804688 206.851562 188.5625 207.238281 C 188.320312 207.628906 188.125 208.039062 187.980469 208.472656 L 153.898438 208.472656 L 153.898438 186.832031 L 178.5625 186.832031 L 184.289062 192.554688 C 183.894531 193.347656 183.695312 194.1875 183.691406 195.074219 C 183.691406 195.453125 183.730469 195.832031 183.804688 196.207031 C 183.882812 196.582031 183.992188 196.941406 184.140625 197.296875 C 184.289062 197.648438 184.46875 197.980469 184.679688 198.296875 C 184.894531 198.613281 185.136719 198.90625 185.40625 199.175781 C 185.675781 199.445312 185.972656 199.683594 186.289062 199.894531 C 186.605469 200.105469 186.941406 200.285156 187.296875 200.429688 C 187.648438 200.574219 188.011719 200.683594 188.386719 200.757812 C 188.761719 200.832031 189.140625 200.867188 189.519531 200.867188 C 189.902344 200.863281 190.28125 200.828125 190.652344 200.75 C 191.027344 200.675781 191.390625 200.566406 191.742188 200.417969 C 192.09375 200.269531 192.429688 200.089844 192.746094 199.878906 C 193.0625 199.664062 193.355469 199.425781 193.625 199.152344 C 193.894531 198.882812 194.136719 198.589844 194.347656 198.269531 C 194.558594 197.953125 194.734375 197.617188 194.882812 197.265625 C 195.027344 196.914062 195.136719 196.550781 195.210938 196.175781 C 195.285156 195.800781 195.320312 195.421875 195.320312 195.039062 C 195.320312 194.660156 195.28125 194.28125 195.207031 193.90625 C 195.132812 193.535156 195.019531 193.171875 194.875 192.816406 C 194.726562 192.464844 194.546875 192.132812 194.335938 191.8125 C 194.125 191.496094 193.882812 191.203125 193.613281 190.933594 C 193.34375 190.664062 193.046875 190.425781 192.730469 190.210938 C 192.414062 190 192.078125 189.820312 191.726562 189.675781 C 191.371094 189.53125 191.007812 189.421875 190.636719 189.347656 C 190.261719 189.273438 189.882812 189.234375 189.5 189.234375 C 188.574219 189.242188 187.699219 189.460938 186.878906 189.890625 L 180.636719 183.644531 C 180.277344 183.285156 179.839844 183.105469 179.328125 183.105469 L 153.898438 183.105469 L 153.898438 173.859375 L 182.753906 173.859375 C 182.898438 174.292969 183.09375 174.703125 183.335938 175.089844 C 183.578125 175.476562 183.863281 175.832031 184.1875 176.152344 C 184.511719 176.472656 184.871094 176.75 185.261719 176.984375 C 185.652344 177.222656 186.066406 177.410156 186.503906 177.546875 C 186.9375 177.683594 187.382812 177.769531 187.839844 177.804688 C 188.296875 177.835938 188.75 177.816406 189.199219 177.742188 C 189.652344 177.671875 190.085938 177.546875 190.507812 177.367188 C 190.929688 177.191406 191.324219 176.96875 191.695312 176.699219 C 192.0625 176.429688 192.394531 176.121094 192.691406 175.773438 C 192.988281 175.421875 193.238281 175.046875 193.445312 174.636719 C 193.652344 174.230469 193.808594 173.804688 193.914062 173.359375 C 194.019531 172.917969 194.074219 172.464844 194.074219 172.007812 C 194.074219 171.550781 194.019531 171.101562 193.914062 170.65625 C 193.808594 170.210938 193.652344 169.785156 193.445312 169.378906 C 193.238281 168.972656 192.988281 168.59375 192.691406 168.246094 C 192.394531 167.898438 192.0625 167.585938 191.695312 167.316406 C 191.324219 167.046875 190.929688 166.824219 190.507812 166.648438 C 190.085938 166.472656 189.652344 166.347656 189.199219 166.273438 C 188.75 166.199219 188.296875 166.179688 187.839844 166.210938 C 187.382812 166.246094 186.9375 166.332031 186.503906 166.46875 C 186.066406 166.609375 185.652344 166.796875 185.261719 167.03125 C 184.871094 167.265625 184.511719 167.546875 184.1875 167.867188 C 183.863281 168.1875 183.578125 168.539062 183.335938 168.929688 C 183.09375 169.316406 182.898438 169.726562 182.753906 170.160156 L 153.898438 170.160156 L 153.898438 158.003906 L 172.792969 158.003906 C 173.300781 158.003906 173.738281 157.820312 174.097656 157.460938 L 182.949219 148.605469 C 183.761719 149.023438 184.625 149.238281 185.539062 149.242188 C 185.921875 149.242188 186.300781 149.207031 186.675781 149.132812 C 187.046875 149.058594 187.414062 148.949219 187.765625 148.800781 C 188.117188 148.65625 188.453125 148.476562 188.769531 148.265625 C 189.089844 148.054688 189.382812 147.8125 189.652344 147.542969 C 189.921875 147.273438 190.164062 146.980469 190.375 146.660156 C 190.589844 146.34375 190.769531 146.007812 190.914062 145.65625 C 191.0625 145.304688 191.171875 144.941406 191.246094 144.566406 C 191.320312 144.191406 191.359375 143.8125 191.359375 143.429688 C 191.359375 143.050781 191.320312 142.671875 191.246094 142.296875 C 191.171875 141.921875 191.0625 141.558594 190.917969 141.207031 C 190.769531 140.851562 190.589844 140.515625 190.378906 140.199219 C 190.167969 139.882812 189.925781 139.589844 189.65625 139.316406 C 189.386719 139.046875 189.09375 138.804688 188.773438 138.59375 C 188.457031 138.382812 188.121094 138.203125 187.769531 138.054688 C 187.417969 137.910156 187.054688 137.800781 186.679688 137.726562 C 186.304688 137.652344 185.925781 137.613281 185.542969 137.613281 C 185.164062 137.613281 184.785156 137.648438 184.410156 137.726562 C 184.035156 137.800781 183.671875 137.910156 183.320312 138.054688 C 182.964844 138.203125 182.628906 138.378906 182.3125 138.59375 C 181.996094 138.804688 181.703125 139.046875 181.429688 139.316406 C 181.160156 139.585938 180.921875 139.878906 180.707031 140.199219 C 180.496094 140.515625 180.316406 140.851562 180.171875 141.203125 C 180.023438 141.554688 179.914062 141.917969 179.839844 142.292969 C 179.765625 142.667969 179.726562 143.046875 179.726562 143.429688 C 179.730469 144.328125 179.9375 145.179688 180.34375 145.984375 L 172.027344 154.304688 L 153.898438 154.304688 L 153.898438 142.097656 C 153.902344 141.5 153.667969 141.015625 153.199219 140.648438 C 152.058594 139.792969 150.84375 139.0625 149.554688 138.453125 C 148.265625 137.84375 146.925781 137.367188 145.542969 137.023438 C 144.160156 136.683594 142.753906 136.480469 141.328125 136.421875 C 139.90625 136.359375 138.488281 136.441406 137.078125 136.667969 C 134.316406 137.300781 131.667969 138.257812 129.140625 139.546875 C 126.613281 140.832031 124.277344 142.402344 122.136719 144.265625 C 120.652344 144.542969 119.246094 145.046875 117.921875 145.777344 C 116.433594 146.476562 115.160156 147.457031 114.101562 148.714844 C 113.042969 149.976562 112.292969 151.398438 111.859375 152.984375 C 111.371094 155.296875 111.59375 157.539062 112.523438 159.710938 C 112.230469 159.785156 111.964844 159.828125 111.667969 159.910156 C 110.566406 160.125 109.503906 160.457031 108.480469 160.914062 C 107.453125 161.371094 106.496094 161.9375 105.601562 162.613281 C 104.710938 163.292969 103.90625 164.0625 103.1875 164.925781 C 102.472656 165.789062 101.863281 166.722656 101.363281 167.726562 C 100.796875 169.234375 100.515625 170.792969 100.515625 172.40625 C 100.515625 174.019531 100.796875 175.578125 101.363281 177.085938 C 98.921875 178.332031 95.445312 181.566406 95.816406 189.859375 C 95.898438 192.335938 96.707031 194.542969 98.238281 196.484375 C 97.550781 197.320312 96.964844 198.21875 96.484375 199.183594 C 96 200.148438 95.632812 201.15625 95.378906 202.203125 C 95.125 203.253906 94.992188 204.316406 94.980469 205.398438 C 94.972656 206.476562 95.082031 207.542969 95.3125 208.597656 C 96.070312 210.691406 97.210938 212.546875 98.730469 214.175781 C 100.253906 215.800781 102.03125 217.0625 104.066406 217.960938 C 103.679688 220.011719 103.695312 222.058594 104.117188 224.101562 C 104.535156 226.144531 105.324219 228.035156 106.488281 229.769531 C 108.0625 231.765625 109.941406 233.421875 112.121094 234.730469 C 114.304688 236.042969 116.644531 236.925781 119.148438 237.378906 C 121.386719 239.261719 123.867188 240.738281 126.589844 241.808594 C 129.3125 242.875 132.132812 243.480469 135.054688 243.617188 C 136.378906 243.617188 137.683594 243.476562 138.972656 243.195312 C 140.527344 242.761719 142.027344 242.175781 143.464844 241.4375 C 144.902344 240.703125 146.253906 239.832031 147.519531 238.828125 C 148.78125 237.824219 149.933594 236.703125 150.976562 235.46875 C 152.015625 234.230469 152.925781 232.90625 153.699219 231.488281 C 153.839844 231.21875 153.910156 230.933594 153.910156 230.628906 L 153.910156 224.378906 L 178.574219 224.378906 L 189.570312 235.402344 C 189.398438 235.78125 189.269531 236.171875 189.183594 236.578125 C 189.097656 236.988281 189.054688 237.398438 189.058594 237.8125 C 189.058594 238.230469 189.105469 238.640625 189.195312 239.046875 C 189.285156 239.453125 189.414062 239.84375 189.589844 240.222656 C 189.765625 240.597656 189.976562 240.953125 190.226562 241.285156 C 190.476562 241.617188 190.757812 241.917969 191.074219 242.191406 C 191.390625 242.460938 191.730469 242.695312 192.09375 242.894531 C 192.460938 243.09375 192.84375 243.25 193.242188 243.367188 C 193.640625 243.480469 194.050781 243.554688 194.464844 243.582031 C 194.878906 243.609375 195.292969 243.59375 195.703125 243.535156 C 196.113281 243.472656 196.515625 243.371094 196.902344 243.222656 C 197.292969 243.078125 197.664062 242.890625 198.011719 242.664062 C 198.359375 242.441406 198.683594 242.179688 198.976562 241.886719 C 199.269531 241.589844 199.527344 241.269531 199.75 240.917969 C 199.976562 240.566406 200.160156 240.199219 200.304688 239.808594 C 200.449219 239.417969 200.550781 239.015625 200.605469 238.605469 C 200.664062 238.195312 200.679688 237.78125 200.648438 237.367188 C 200.617188 236.949219 200.542969 236.542969 200.425781 236.144531 C 200.308594 235.746094 200.148438 235.367188 199.949219 235 C 199.75 234.636719 199.511719 234.296875 199.242188 233.984375 C 198.96875 233.667969 198.664062 233.386719 198.332031 233.140625 C 198 232.890625 197.644531 232.679688 197.265625 232.507812 C 196.886719 232.335938 196.492188 232.207031 196.085938 232.117188 C 195.679688 232.03125 195.269531 231.988281 194.855469 231.988281 Z M 193.464844 208.191406 C 193.746094 208.191406 194.015625 208.242188 194.277344 208.351562 C 194.535156 208.457031 194.765625 208.613281 194.960938 208.808594 C 195.160156 209.007812 195.3125 209.238281 195.421875 209.496094 C 195.527344 209.757812 195.582031 210.027344 195.582031 210.304688 C 195.582031 210.585938 195.527344 210.855469 195.421875 211.117188 C 195.3125 211.375 195.160156 211.605469 194.960938 211.800781 C 194.765625 212 194.535156 212.152344 194.277344 212.261719 C 194.015625 212.367188 193.746094 212.421875 193.464844 212.421875 C 193.1875 212.421875 192.917969 212.367188 192.65625 212.261719 C 192.398438 212.152344 192.167969 212 191.96875 211.800781 C 191.773438 211.605469 191.617188 211.375 191.511719 211.117188 C 191.40625 210.855469 191.351562 210.585938 191.351562 210.304688 C 191.351562 210.027344 191.40625 209.757812 191.511719 209.496094 C 191.621094 209.238281 191.773438 209.007812 191.96875 208.808594 C 192.167969 208.613281 192.398438 208.457031 192.65625 208.351562 C 192.917969 208.242188 193.1875 208.191406 193.464844 208.191406 Z M 191.617188 195.058594 C 191.617188 195.339844 191.5625 195.609375 191.457031 195.867188 C 191.351562 196.128906 191.199219 196.355469 191 196.554688 C 190.800781 196.753906 190.574219 196.90625 190.3125 197.015625 C 190.054688 197.125 189.785156 197.175781 189.503906 197.179688 C 189.222656 197.179688 188.953125 197.125 188.695312 197.019531 C 188.433594 196.910156 188.203125 196.757812 188.007812 196.558594 C 187.808594 196.359375 187.65625 196.132812 187.546875 195.875 C 187.4375 195.613281 187.386719 195.34375 187.386719 195.0625 C 187.386719 194.78125 187.4375 194.511719 187.546875 194.253906 C 187.652344 193.992188 187.804688 193.765625 188.003906 193.566406 C 188.203125 193.367188 188.433594 193.214844 188.691406 193.105469 C 188.949219 193 189.21875 192.945312 189.5 192.945312 C 189.78125 192.945312 190.050781 193 190.308594 193.105469 C 190.570312 193.214844 190.796875 193.367188 190.996094 193.5625 C 191.195312 193.761719 191.347656 193.992188 191.453125 194.25 C 191.5625 194.507812 191.617188 194.777344 191.617188 195.058594 Z M 188.246094 169.902344 C 188.527344 169.902344 188.796875 169.957031 189.054688 170.0625 C 189.3125 170.171875 189.542969 170.324219 189.742188 170.523438 C 189.9375 170.71875 190.089844 170.949219 190.199219 171.207031 C 190.304688 171.464844 190.359375 171.734375 190.359375 172.015625 C 190.359375 172.296875 190.304688 172.566406 190.199219 172.824219 C 190.089844 173.082031 189.9375 173.3125 189.742188 173.507812 C 189.542969 173.707031 189.3125 173.859375 189.054688 173.96875 C 188.796875 174.074219 188.527344 174.128906 188.246094 174.128906 C 187.96875 174.128906 187.699219 174.074219 187.4375 173.96875 C 187.179688 173.859375 186.953125 173.707031 186.753906 173.507812 C 186.554688 173.3125 186.402344 173.082031 186.296875 172.824219 C 186.1875 172.566406 186.136719 172.296875 186.136719 172.015625 C 186.132812 171.734375 186.1875 171.464844 186.292969 171.207031 C 186.398438 170.945312 186.550781 170.714844 186.75 170.515625 C 186.949219 170.320312 187.179688 170.164062 187.4375 170.058594 C 187.695312 169.949219 187.964844 169.894531 188.246094 169.894531 Z M 185.539062 141.316406 C 185.820312 141.316406 186.089844 141.367188 186.351562 141.476562 C 186.609375 141.582031 186.839844 141.734375 187.039062 141.933594 C 187.234375 142.132812 187.390625 142.363281 187.496094 142.621094 C 187.605469 142.878906 187.660156 143.148438 187.660156 143.429688 C 187.660156 143.710938 187.605469 143.980469 187.5 144.242188 C 187.390625 144.5 187.238281 144.730469 187.039062 144.929688 C 186.839844 145.125 186.613281 145.28125 186.351562 145.386719 C 186.09375 145.496094 185.824219 145.546875 185.542969 145.546875 C 185.261719 145.546875 184.992188 145.492188 184.730469 145.386719 C 184.472656 145.277344 184.242188 145.125 184.046875 144.925781 C 183.847656 144.726562 183.695312 144.5 183.585938 144.238281 C 183.480469 143.980469 183.425781 143.710938 183.425781 143.429688 C 183.425781 143.148438 183.480469 142.878906 183.589844 142.621094 C 183.695312 142.363281 183.847656 142.132812 184.046875 141.9375 C 184.246094 141.738281 184.472656 141.585938 184.730469 141.476562 C 184.988281 141.371094 185.257812 141.316406 185.539062 141.316406 Z M 150.199219 230.144531 C 148.886719 232.4375 147.191406 234.402344 145.113281 236.035156 C 143.035156 237.664062 140.726562 238.847656 138.1875 239.582031 C 132.953125 240.726562 127.1875 238.910156 121.070312 234.171875 C 120.8125 233.972656 120.523438 233.851562 120.203125 233.804688 C 118.109375 233.449219 116.140625 232.742188 114.300781 231.683594 C 112.460938 230.621094 110.867188 229.269531 109.511719 227.632812 C 108.53125 226.089844 107.902344 224.414062 107.632812 222.605469 C 107.359375 220.796875 107.46875 219.007812 107.957031 217.246094 C 108 217.03125 108.007812 216.8125 107.976562 216.59375 C 107.945312 216.375 107.875 216.167969 107.769531 215.972656 C 107.660156 215.777344 107.523438 215.609375 107.355469 215.464844 C 107.1875 215.320312 107 215.207031 106.792969 215.128906 C 106.730469 215.105469 100.265625 212.621094 98.875 207.589844 C 98.59375 206.089844 98.636719 204.597656 99.007812 203.117188 C 99.375 201.636719 100.039062 200.296875 100.988281 199.105469 C 102.878906 200.359375 104.90625 201.328125 107.066406 202.019531 C 109.226562 202.710938 111.4375 203.097656 113.703125 203.175781 L 113.773438 203.175781 C 114.019531 203.179688 114.257812 203.136719 114.484375 203.046875 C 114.710938 202.957031 114.914062 202.824219 115.089844 202.65625 C 115.269531 202.484375 115.40625 202.289062 115.503906 202.0625 C 115.601562 201.839844 115.652344 201.601562 115.65625 201.359375 C 115.660156 201.113281 115.617188 200.875 115.527344 200.648438 C 115.4375 200.417969 115.308594 200.21875 115.136719 200.039062 C 114.96875 199.863281 114.769531 199.726562 114.546875 199.628906 C 114.320312 199.53125 114.085938 199.480469 113.839844 199.476562 C 111.789062 199.371094 109.792969 198.980469 107.851562 198.308594 C 105.914062 197.636719 104.101562 196.710938 102.425781 195.523438 C 102.316406 195.21875 102.136719 194.964844 101.890625 194.753906 C 101.75 194.65625 101.597656 194.578125 101.433594 194.527344 C 100.21875 193.140625 99.578125 191.527344 99.511719 189.6875 C 99.109375 180.746094 103.816406 180.023438 103.988281 180.003906 C 104.136719 179.988281 104.285156 179.957031 104.429688 179.90625 C 104.574219 179.851562 104.710938 179.785156 104.835938 179.699219 C 104.964844 179.617188 105.078125 179.519531 105.179688 179.40625 C 105.285156 179.292969 105.371094 179.167969 105.441406 179.035156 C 105.515625 178.898438 105.570312 178.757812 105.605469 178.609375 C 105.644531 178.460938 105.660156 178.3125 105.660156 178.15625 C 105.660156 178.003906 105.644531 177.855469 105.605469 177.707031 C 105.566406 177.558594 105.511719 177.417969 105.441406 177.285156 C 104.796875 176.023438 104.417969 174.691406 104.304688 173.28125 C 104.191406 171.871094 104.351562 170.492188 104.785156 169.144531 C 105.1875 168.40625 105.664062 167.722656 106.21875 167.089844 C 106.777344 166.460938 107.394531 165.898438 108.078125 165.40625 C 108.757812 164.914062 109.488281 164.503906 110.261719 164.179688 C 111.035156 163.851562 111.835938 163.613281 112.664062 163.46875 C 113.761719 163.035156 114.894531 162.730469 116.0625 162.5625 C 117.230469 162.390625 118.402344 162.355469 119.578125 162.457031 C 120.75 162.558594 121.898438 162.792969 123.023438 163.15625 C 124.144531 163.523438 125.207031 164.015625 126.214844 164.628906 C 126.933594 165.191406 127.582031 165.828125 128.160156 166.53125 C 128.738281 167.238281 129.230469 168 129.640625 168.816406 C 130.050781 169.628906 130.371094 170.480469 130.59375 171.367188 C 130.816406 172.25 130.941406 173.148438 130.964844 174.0625 C 130.96875 174.308594 131.019531 174.546875 131.121094 174.769531 C 131.222656 174.996094 131.363281 175.195312 131.542969 175.363281 C 131.722656 175.53125 131.929688 175.65625 132.164062 175.738281 C 132.394531 175.824219 132.632812 175.859375 132.882812 175.84375 C 133.125 175.835938 133.359375 175.78125 133.582031 175.675781 C 133.804688 175.574219 134 175.433594 134.167969 175.253906 C 134.335938 175.074219 134.460938 174.871094 134.546875 174.640625 C 134.632812 174.410156 134.667969 174.171875 134.660156 173.929688 C 134.632812 172.734375 134.46875 171.558594 134.175781 170.398438 C 133.882812 169.238281 133.464844 168.128906 132.917969 167.0625 C 132.375 166 131.71875 165.011719 130.953125 164.09375 C 130.183594 163.175781 129.324219 162.359375 128.371094 161.636719 C 126.589844 160.433594 124.644531 159.605469 122.542969 159.152344 C 120.445312 158.699219 118.332031 158.648438 116.210938 159.003906 C 115.347656 157.363281 115.085938 155.628906 115.429688 153.804688 C 115.761719 152.738281 116.300781 151.789062 117.042969 150.953125 C 117.789062 150.117188 118.671875 149.476562 119.695312 149.023438 C 127.675781 144.632812 134.835938 152.375 135.132812 152.722656 C 135.296875 152.902344 135.492188 153.046875 135.710938 153.152344 C 135.933594 153.257812 136.167969 153.316406 136.414062 153.328125 C 136.65625 153.34375 136.894531 153.308594 137.128906 153.226562 C 137.359375 153.144531 137.566406 153.019531 137.75 152.855469 C 137.929688 152.691406 138.074219 152.5 138.179688 152.277344 C 138.285156 152.054688 138.34375 151.824219 138.359375 151.578125 C 138.371094 151.332031 138.335938 151.09375 138.253906 150.863281 C 138.171875 150.632812 138.050781 150.425781 137.886719 150.242188 C 136.570312 148.824219 135.078125 147.621094 133.414062 146.636719 C 131.75 145.648438 129.980469 144.914062 128.105469 144.4375 C 131.070312 142.441406 134.296875 141.058594 137.789062 140.296875 C 139.957031 139.964844 142.109375 140.039062 144.25 140.511719 C 146.390625 140.988281 148.375 141.832031 150.199219 143.042969 Z M 194.855469 239.914062 C 194.574219 239.914062 194.304688 239.863281 194.042969 239.753906 C 193.785156 239.648438 193.554688 239.496094 193.355469 239.296875 C 193.15625 239.097656 193.003906 238.871094 192.894531 238.609375 C 192.789062 238.351562 192.734375 238.082031 192.734375 237.800781 C 192.734375 237.519531 192.789062 237.25 192.894531 236.988281 C 193.003906 236.730469 193.15625 236.5 193.355469 236.300781 C 193.550781 236.105469 193.78125 235.949219 194.039062 235.84375 C 194.300781 235.738281 194.570312 235.683594 194.851562 235.683594 C 195.132812 235.683594 195.402344 235.738281 195.660156 235.84375 C 195.921875 235.953125 196.148438 236.105469 196.347656 236.304688 C 196.546875 236.503906 196.699219 236.730469 196.804688 236.992188 C 196.914062 237.25 196.964844 237.523438 196.964844 237.800781 C 196.964844 238.082031 196.910156 238.351562 196.804688 238.609375 C 196.695312 238.867188 196.542969 239.097656 196.347656 239.296875 C 196.148438 239.492188 195.921875 239.644531 195.660156 239.753906 C 195.402344 239.859375 195.132812 239.914062 194.855469 239.914062 Z M 194.855469 239.914062 "
     fill-opacity="1"
     fill-rule="nonzero"
     id="path4"
   style="fill:#c2410c;fill-opacity:1" />
  <path
   fill="#c2410c"
     d="M 269.996094 166.160156 C 269.996094 166.429688 269.96875 166.695312 269.917969 166.957031 C 269.863281 167.21875 269.785156 167.476562 269.683594 167.722656 C 269.582031 167.96875 269.457031 168.207031 269.308594 168.429688 C 269.15625 168.652344 268.988281 168.859375 268.800781 169.046875 C 268.609375 169.238281 268.402344 169.40625 268.179688 169.554688 C 267.957031 169.703125 267.722656 169.828125 267.476562 169.933594 C 267.226562 170.035156 266.972656 170.113281 266.710938 170.164062 C 266.445312 170.21875 266.179688 170.242188 265.914062 170.242188 C 265.644531 170.242188 265.378906 170.21875 265.117188 170.164062 C 264.851562 170.113281 264.597656 170.035156 264.351562 169.933594 C 264.101562 169.828125 263.867188 169.703125 263.644531 169.554688 C 263.421875 169.40625 263.214844 169.238281 263.027344 169.046875 C 262.835938 168.859375 262.667969 168.652344 262.519531 168.429688 C 262.367188 168.207031 262.242188 167.96875 262.140625 167.722656 C 262.039062 167.476562 261.960938 167.21875 261.910156 166.957031 C 261.855469 166.695312 261.828125 166.429688 261.828125 166.160156 C 261.828125 165.890625 261.855469 165.628906 261.910156 165.363281 C 261.960938 165.101562 262.039062 164.847656 262.140625 164.597656 C 262.242188 164.351562 262.367188 164.117188 262.519531 163.890625 C 262.667969 163.667969 262.835938 163.464844 263.027344 163.273438 C 263.214844 163.085938 263.421875 162.914062 263.644531 162.765625 C 263.867188 162.617188 264.101562 162.492188 264.351562 162.390625 C 264.597656 162.285156 264.851562 162.207031 265.117188 162.15625 C 265.378906 162.105469 265.644531 162.078125 265.914062 162.078125 C 266.179688 162.078125 266.445312 162.105469 266.710938 162.15625 C 266.972656 162.207031 267.226562 162.285156 267.476562 162.390625 C 267.722656 162.492188 267.957031 162.617188 268.179688 162.765625 C 268.402344 162.914062 268.609375 163.085938 268.800781 163.273438 C 268.988281 163.464844 269.15625 163.667969 269.308594 163.890625 C 269.457031 164.117188 269.582031 164.351562 269.683594 164.597656 C 269.785156 164.847656 269.863281 165.101562 269.917969 165.363281 C 269.96875 165.628906 269.996094 165.890625 269.996094 166.160156 Z M 269.996094 166.160156 "
     fill-opacity="1"
     fill-rule="nonzero"
     id="path6"
   style="fill:#c2410c;fill-opacity:1" />
  <path
   fill="#c2410c"
     d="M 269.996094 197.714844 C 269.996094 197.980469 269.96875 198.246094 269.917969 198.507812 C 269.863281 198.773438 269.785156 199.027344 269.683594 199.273438 C 269.582031 199.523438 269.457031 199.757812 269.308594 199.980469 C 269.15625 200.203125 268.988281 200.410156 268.800781 200.601562 C 268.609375 200.789062 268.402344 200.957031 268.179688 201.109375 C 267.957031 201.257812 267.722656 201.382812 267.476562 201.484375 C 267.226562 201.585938 266.972656 201.664062 266.710938 201.71875 C 266.445312 201.769531 266.179688 201.796875 265.914062 201.796875 C 265.644531 201.796875 265.378906 201.769531 265.117188 201.71875 C 264.851562 201.664062 264.597656 201.585938 264.351562 201.484375 C 264.101562 201.382812 263.867188 201.257812 263.644531 201.109375 C 263.421875 200.957031 263.214844 200.789062 263.027344 200.601562 C 262.835938 200.410156 262.667969 200.203125 262.519531 199.980469 C 262.367188 199.757812 262.242188 199.523438 262.140625 199.273438 C 262.039062 199.027344 261.960938 198.773438 261.910156 198.507812 C 261.855469 198.246094 261.828125 197.980469 261.828125 197.714844 C 261.828125 197.445312 261.855469 197.179688 261.910156 196.917969 C 261.960938 196.652344 262.039062 196.398438 262.140625 196.152344 C 262.242188 195.902344 262.367188 195.667969 262.519531 195.445312 C 262.667969 195.222656 262.835938 195.015625 263.027344 194.824219 C 263.214844 194.636719 263.421875 194.46875 263.644531 194.320312 C 263.867188 194.167969 264.101562 194.042969 264.351562 193.941406 C 264.597656 193.839844 264.851562 193.761719 265.117188 193.707031 C 265.378906 193.65625 265.644531 193.628906 265.914062 193.628906 C 266.179688 193.628906 266.445312 193.65625 266.710938 193.707031 C 266.972656 193.761719 267.226562 193.839844 267.476562 193.941406 C 267.722656 194.042969 267.957031 194.167969 268.179688 194.320312 C 268.402344 194.46875 268.609375 194.636719 268.800781 194.824219 C 268.988281 195.015625 269.15625 195.222656 269.308594 195.445312 C 269.457031 195.667969 269.582031 195.902344 269.683594 196.152344 C 269.785156 196.398438 269.863281 196.652344 269.917969 196.917969 C 269.96875 197.179688 269.996094 197.445312 269.996094 197.714844 Z M 269.996094 197.714844 "
     fill-opacity="1"
     fill-rule="nonzero"
     id="path7"
   style="fill:#c2410c;fill-opacity:1" />
  <path
   fill="#c2410c"
     d="M 269.996094 231.230469 C 269.996094 231.5 269.96875 231.765625 269.917969 232.027344 C 269.863281 232.289062 269.785156 232.546875 269.683594 232.792969 C 269.582031 233.042969 269.457031 233.277344 269.308594 233.5 C 269.15625 233.722656 268.988281 233.929688 268.800781 234.117188 C 268.609375 234.308594 268.402344 234.476562 268.179688 234.625 C 267.957031 234.773438 267.722656 234.898438 267.476562 235.003906 C 267.226562 235.105469 266.972656 235.183594 266.710938 235.234375 C 266.445312 235.289062 266.179688 235.3125 265.914062 235.3125 C 265.644531 235.3125 265.378906 235.289062 265.117188 235.234375 C 264.851562 235.183594 264.597656 235.105469 264.351562 235.003906 C 264.101562 234.898438 263.867188 234.773438 263.644531 234.625 C 263.421875 234.476562 263.214844 234.308594 263.027344 234.117188 C 262.835938 233.929688 262.667969 233.722656 262.519531 233.5 C 262.367188 233.277344 262.242188 233.042969 262.140625 232.792969 C 262.039062 232.546875 261.960938 232.289062 261.910156 232.027344 C 261.855469 231.765625 261.828125 231.5 261.828125 231.230469 C 261.828125 230.964844 261.855469 230.699219 261.910156 230.433594 C 261.960938 230.171875 262.039062 229.917969 262.140625 229.667969 C 262.242188 229.421875 262.367188 229.1875 262.519531 228.964844 C 262.667969 228.738281 262.835938 228.535156 263.027344 228.34375 C 263.214844 228.15625 263.421875 227.984375 263.644531 227.835938 C 263.867188 227.6875 264.101562 227.5625 264.351562 227.460938 C 264.597656 227.355469 264.851562 227.277344 265.117188 227.226562 C 265.378906 227.175781 265.644531 227.148438 265.914062 227.148438 C 266.179688 227.148438 266.445312 227.175781 266.710938 227.226562 C 266.972656 227.277344 267.226562 227.355469 267.476562 227.460938 C 267.722656 227.5625 267.957031 227.6875 268.179688 227.835938 C 268.402344 227.984375 268.609375 228.15625 268.800781 228.34375 C 268.988281 228.535156 269.15625 228.738281 269.308594 228.964844 C 269.457031 229.1875 269.582031 229.421875 269.683594 229.667969 C 269.785156 229.917969 269.863281 230.171875 269.917969 230.433594 C 269.96875 230.699219 269.996094 230.964844 269.996094 231.230469 Z M 269.996094 231.230469 "
     fill-opacity="1"
     fill-rule="nonzero"
     id="path8"
   style="fill:#c2410c;fill-opacity:1" />
</svg>
